# xmcd
#
# Track frame offsets: 
#        150
#        21330
#        39581
#        52514
#        67167
#        93657
#        107648
#        128043
#        149168
#        162896
#        180884
#        197975
#
# Disc length: 2891 seconds
#
# Revision: 0
# Processed by: cddbd v1.4PL0 Copyright (c) Steve Scherf et al.
# Submitted via: ExactAudioCopy v0.95a3
#
DISCID=a70b490c
DTITLE=Takáts Tamás Dirty Blues Band - Megöl a vágy
DYEAR=1999
DGENRE=Blues
TTITLE0=Szerelem
TTITLE1=2000 év
TTITLE2=Megöl a vágy
TTITLE3=Politikus
TTITLE4=Adjatok tejet
TTITLE5=Kemény kézzel
TTITLE6=Hozzád
TTITLE7=Örök idõ
TTITLE8=Country
TTITLE9=Kis U.F.O.
TTITLE10=Megvadult a világ
TTITLE11=Tavasz
EXTD=
EXTT0=
EXTT1=
EXTT2=
EXTT3=
EXTT4=
EXTT5=
EXTT6=
EXTT7=
EXTT8=
EXTT9=
EXTT10=
EXTT11=
PLAYORDER=
